<svg width="20" height="20" viewBox="0 0 20 20" fill="none" xmlns="http://www.w3.org/2000/svg">
<path d="M5.2333 18.3333C6.66924 18.3333 7.8333 17.1693 7.8333 15.7333C7.8333 14.2974 6.66924 13.1333 5.2333 13.1333C3.79736 13.1333 2.6333 14.2974 2.6333 15.7333C2.6333 17.1693 3.79736 18.3333 5.2333 18.3333Z" stroke="#999999" stroke-width="1.5" stroke-linecap="round" stroke-linejoin="round"/>
<path d="M17.3666 14V3.83332C17.3666 1.66665 16.0083 1.36665 14.6333 1.74165L9.43325 3.15832C8.48325 3.41665 7.83325 4.16665 7.83325 5.24999V7.05832V8.27499V15.725" stroke="#999999" stroke-width="1.5" stroke-linecap="round" stroke-linejoin="round"/>
<path d="M14.7667 16.6C16.2027 16.6 17.3667 15.4359 17.3667 14C17.3667 12.5641 16.2027 11.4 14.7667 11.4C13.3308 11.4 12.1667 12.5641 12.1667 14C12.1667 15.4359 13.3308 16.6 14.7667 16.6Z" stroke="#999999" stroke-width="1.5" stroke-linecap="round" stroke-linejoin="round"/>
<path d="M7.83325 7.93334L17.3666 5.33334" stroke="#999999" stroke-width="1.5" stroke-linecap="round" stroke-linejoin="round"/>
</svg>
